# xmcd
#
# Track frame offsets:
#	150
#	10040
#	23477
#	38115
#	52502
#	66070
#	79065
#	93007
#	103117
#	119304
#	132735
#	147460
#
# Disc length: 2152 seconds
#
# Revision: 5
# Processed by: cddbd v1.5.2PL0 Copyright (c) Steve Scherf et al.
# Submitted via: EZCDAudioConverter 6.0.5.1
#
DISCID=9008660c
DTITLE=Ricky Van Shelton - Making Plans
DYEAR=1997
DGENRE=Country
TTITLE0=Just Say Goodbye
TTITLE1=When The Feeling Goes Away
TTITLE2=She Needs Me
TTITLE3=Borrowed Angel
TTITLE4=I Wish You Were More Like Your Memory
TTITLE5=Tic Toc
TTITLE6=It Wouldn't Kill Me
TTITLE7=Making Plans
TTITLE8=He's Not The Man I Used To Be
TTITLE9=Our Love
TTITLE10=The Best Thing Goin'
TTITLE11=The Best Is Yet To Come
EXTD=
EXTT0=
EXTT1=
EXTT2=
EXTT3=
EXTT4=
EXTT5=
EXTT6=
EXTT7=
EXTT8=
EXTT9=
EXTT10=
EXTT11=
PLAYORDER=
